<svg xmlns="http://www.w3.org/2000/svg" viewBox="0 0 1200 620" role="img" aria-labelledby="title desc">
  <title id="title">Designs Direct Price Game</title>
  <desc id="desc">Original retro game-show sign using Designs Direct colors.</desc>
  <defs>
    <linearGradient id="red" x1="0" y1="0" x2="1" y2="1"><stop stop-color="#f44336"/><stop offset="1" stop-color="#c71325"/></linearGradient>
    <linearGradient id="orange" x1="0" y1="0" x2="1" y2="1"><stop stop-color="#ff9f2f"/><stop offset="1" stop-color="#f36c21"/></linearGradient>
    <filter id="shadow" x="-20%" y="-20%" width="140%" height="140%"><feDropShadow dx="14" dy="18" stdDeviation="0" flood-color="#111" flood-opacity=".9"/></filter>
  </defs>
  <path d="M95 110 360 35l0 550L95 510Q38 492 38 430V190q0-63 57-80Z" fill="url(#orange)" stroke="#111" stroke-width="18" filter="url(#shadow)"/>
  <path d="M360 35 1084 84q76 5 76 78v294q0 78-76 84l-724 45Z" fill="url(#red)" stroke="#111" stroke-width="18" filter="url(#shadow)"/>
  <g fill="none" stroke="#ffe83d" stroke-width="30" stroke-linecap="round">
    <path d="M205 176c82-76 132 21 64 69-80 56-11 138 70 71"/>
    <path d="M286 158v322"/>
  </g>
  <g font-family="Arial Black, Impact, sans-serif" font-weight="900" text-anchor="start" paint-order="stroke" stroke="#111" stroke-width="8">
    <text x="430" y="205" font-size="100" fill="#fff4d2">DESIGNS DIRECT</text>
    <text x="430" y="340" font-size="146" fill="#ffe83d">PRICE</text>
    <text x="430" y="485" font-size="146" fill="#fff">GAME</text>
  </g>
</svg>
